<?xml version="1.0" standalone="no"?>
<!DOCTYPE svg PUBLIC "-//W3C//DTD SVG 20010904//EN"
 "http://www.w3.org/TR/2001/REC-SVG-20010904/DTD/svg10.dtd">
<svg version="1.0" xmlns="http://www.w3.org/2000/svg"
 width="256.000000pt" height="256.000000pt" viewBox="0 0 256.000000 256.000000"
 preserveAspectRatio="xMidYMid meet">
<metadata>
Created by potrace 1.14, written by Peter Selinger 2001-2017
</metadata>
<g transform="translate(0.000000,256.000000) scale(0.100000,-0.100000)"
fill="#000000" stroke="none">
<path d="M1153 2526 c-20 -9 -28 -25 -24 -48 1 -8 -16 -11 -64 -10 -34 1 -58
-15 -51 -35 3 -7 1 -13 -3 -13 -5 0 -13 12 -18 26 -8 25 -10 25 -23 8 -9 -11
-10 -15 -2 -10 8 5 12 0 12 -14 0 -18 -4 -21 -24 -16 -25 6 -62 -24 -49 -39 5
-4 2 -5 -4 -1 -7 4 -13 14 -13 22 0 18 -11 18 -36 -1 -18 -14 -18 -14 3 -9 15
4 21 2 19 -9 -2 -19 -25 -47 -36 -44 -4 1 -9 -2 -10 -8 -3 -17 -32 -45 -47
-45 -7 0 -13 -5 -13 -12 0 -13 -81 -93 -101 -100 -12 -4 -12 -8 -1 -21 9 -10
10 -21 4 -34 -13 -25 -27 -59 -49 -118 -22 -61 -24 -230 -3 -349 10 -60 11
-81 2 -84 -7 -2 -22 -12 -34 -22 -34 -27 -32 -106 5 -188 16 -35 31 -89 34
-120 6 -63 25 -92 58 -92 21 0 22 -5 28 -98 5 -105 20 -151 75 -244 32 -55 33
-58 23 -114 -6 -31 -12 -58 -13 -59 -20 -18 -117 -55 -166 -64 -34 -7 -94 -25
-132 -42 -38 -16 -80 -29 -94 -29 -15 0 -26 -5 -26 -11 0 -22 173 -189 259
-250 150 -107 322 -181 494 -214 106 -20 378 -20 484 0 103 19 228 62 323 110
86 43 250 153 250 167 0 15 -101 55 -171 68 -35 7 -84 24 -109 37 -25 14 -83
40 -130 59 -46 19 -91 41 -100 49 -8 7 -27 17 -43 20 -31 8 -67 49 -67 77 0
10 16 36 36 56 44 45 98 126 125 190 21 49 72 253 83 334 6 38 11 47 31 52 18
5 33 24 55 71 16 35 30 71 30 79 0 9 9 20 20 26 28 15 25 37 -9 55 -42 21 -44
29 -22 73 12 23 28 97 41 189 20 142 20 153 5 212 -17 68 -59 192 -78 231 -35
73 -136 180 -170 180 -10 0 -28 10 -41 23 -12 12 -40 28 -62 35 -43 15 -79 29
-107 44 -10 5 -26 7 -35 4 -9 -3 -24 -1 -32 4 -13 8 -13 13 -2 32 11 19 8 18
-12 -4 -29 -33 -62 -35 -95 -7 -19 15 -22 22 -12 32 9 9 14 9 22 -3 9 -13 10
-13 6 0 -6 22 -64 22 -70 0 -5 -19 -86 -35 -101 -20 -5 5 -16 6 -25 3 -11 -4
-9 1 7 16 18 18 29 35 20 30 -2 -1 -13 -6 -25 -13z m1 -461 c3 -8 12 -15 20
-15 8 0 22 -10 30 -22 12 -16 19 -19 27 -11 11 11 62 -8 75 -28 4 -6 10 -6 19
1 15 12 36 10 47 -5 4 -6 8 -1 8 9 0 19 0 19 21 0 18 -15 23 -16 27 -5 3 10 9
8 22 -9 21 -27 70 -37 70 -13 0 12 3 13 13 4 8 -6 24 -8 37 -6 13 2 30 -1 38
-8 12 -9 16 -9 19 0 2 7 10 10 18 7 10 -4 12 1 9 18 -5 20 -4 21 8 8 12 -14
53 -40 62 -40 2 0 6 10 9 22 6 21 7 21 26 4 47 -43 91 -227 91 -386 0 -63 -2
-70 -19 -70 -11 0 -22 8 -25 18 -19 59 -111 87 -200 62 -69 -19 -112 -79 -58
-80 13 -1 10 -5 -8 -15 -34 -20 -157 -10 -185 15 -11 10 -33 25 -50 33 -26 14
-27 16 -8 17 52 1 27 38 -52 77 -100 51 -198 47 -285 -11 -41 -27 -53 -56 -22
-56 12 -1 8 -6 -12 -16 -22 -12 -44 -14 -92 -9 -35 4 -64 8 -64 9 0 1 11 39
25 85 21 70 175 400 175 375 0 -5 10 3 23 17 19 22 29 25 74 23 29 -1 55 2 59
7 8 14 21 11 28 -6z m41 -470 l40 -14 -40 7 c-53 8 -152 7 -190 -2 -20 -5 -27
-4 -20 2 24 24 149 28 210 7z m80 -56 c59 -24 60 -24 63 -68 2 -24 0 -51 -4
-60 -4 -9 -8 -26 -10 -38 -3 -29 -32 -71 -58 -86 -12 -7 -59 -15 -106 -18
l-85 -6 84 -1 c68 -2 90 2 116 18 34 21 85 104 85 138 0 31 27 52 68 52 50 0
60 -9 67 -55 25 -168 66 -204 233 -205 39 0 72 -4 72 -9 0 -26 -61 -274 -80
-324 -46 -123 -175 -278 -287 -344 -77 -45 -214 -39 -342 14 -47 20 -48 11 -3
-15 93 -52 253 -68 327 -33 22 11 63 38 90 60 49 40 50 40 53 16 2 -13 21 -41
42 -63 38 -38 39 -40 29 -78 -18 -65 -114 -149 -245 -213 -131 -64 -168 -78
-245 -90 -154 -25 -327 59 -393 191 -41 82 -32 156 27 232 36 46 56 98 57 145
l0 34 50 -47 c27 -25 52 -46 54 -46 3 0 -24 37 -61 83 -36 45 -82 115 -101
156 -29 64 -35 88 -41 185 -5 61 -6 136 -3 168 4 47 1 60 -16 78 -17 18 -19
26 -10 46 6 13 14 21 18 19 11 -7 18 16 26 86 l7 61 70 -5 c76 -5 86 -13 88
-67 1 -76 18 -75 18 1 1 58 5 80 17 90 43 36 237 34 329 -2z m-598 -14 c26
-13 31 -23 37 -66 8 -57 2 -77 -9 -31 -15 72 -106 113 -113 52 -2 -22 -1 -23
8 -7 6 9 16 17 22 17 9 0 9 -3 0 -12 -14 -14 -16 -74 -3 -82 4 -3 6 5 4 18 -3
13 2 36 9 51 l15 27 23 -31 22 -32 -23 -25 c-12 -13 -19 -27 -15 -31 4 -4 12
0 17 10 18 31 28 18 12 -14 -12 -25 -13 -36 -4 -50 6 -10 11 -28 11 -39 0 -11
5 -20 10 -20 6 0 10 -22 10 -50 0 -40 -3 -50 -17 -50 -33 0 -53 31 -53 82 0
29 -10 74 -25 111 -36 87 -41 131 -21 162 19 29 40 31 83 10z m1031 8 c-15 -2
-42 -2 -60 0 -18 2 -6 4 27 4 33 0 48 -2 33 -4z m100 -39 c26 -5 32 -11 32
-33 0 -15 -4 -31 -9 -36 -5 -6 -11 -31 -13 -57 -1 -26 0 -44 4 -40 4 4 8 23
10 42 3 31 6 35 36 38 40 4 47 -11 33 -66 -12 -41 -46 -92 -62 -92 -6 0 -8 4
-5 9 3 5 -1 11 -9 15 -11 4 -15 -1 -15 -18 0 -21 -6 -25 -49 -31 -50 -7 -146
6 -181 25 -26 14 -42 46 -50 98 l-7 43 87 -7 c64 -5 93 -3 111 7 13 7 27 12
31 11 4 -1 5 5 1 14 -3 9 -24 25 -47 35 -49 22 -31 26 21 4 42 -18 46 -18 38
-5 -11 18 -85 31 -132 24 -34 -5 -54 -15 -75 -38 l-28 -30 0 37 c0 20 1 37 3
37 1 0 20 7 42 15 40 15 155 15 233 -1z m82 -49 c0 -8 -7 -15 -15 -15 -16 0
-20 12 -8 23 11 12 23 8 23 -8z m-160 -26 c0 -4 -9 -13 -20 -19 -21 -11 -25
-4 -14 24 6 15 34 11 34 -5z m-134 -16 c-10 -10 -19 5 -10 18 6 11 8 11 12 0
2 -7 1 -15 -2 -18z"/>
<path d="M1055 1543 c-11 -2 -31 -12 -45 -23 -23 -17 -21 -17 35 2 45 15 67
17 90 10 28 -9 27 -9 -17 -9 -45 0 -108 -19 -108 -32 0 -17 128 -51 189 -51
l63 0 -17 28 -18 27 21 -19 c13 -11 22 -14 22 -7 0 15 -62 52 -78 46 -7 -3
-11 -1 -8 4 13 20 -72 36 -129 24z m30 -54 c4 -6 5 -12 2 -15 -7 -7 -37 7 -37
17 0 13 27 11 35 -2z m134 -13 c9 -11 7 -15 -11 -19 -27 -7 -30 -5 -22 17 8
20 18 20 33 2z"/>
<path d="M1180 1194 c-19 -50 -5 -104 28 -104 16 1 16 1 0 11 -20 11 -24 68
-8 100 8 13 7 19 0 19 -6 0 -15 -12 -20 -26z"/>
<path d="M1557 1132 c6 -26 -14 -72 -32 -72 -8 0 -15 -4 -15 -10 0 -14 12 -12
38 6 23 16 32 77 13 88 -5 4 -7 -2 -4 -12z"/>
<path d="M1255 1109 c-17 -6 -15 -8 10 -8 17 -1 50 -15 74 -31 24 -17 49 -30
55 -30 26 1 117 38 107 44 -5 4 -27 0 -47 -9 -49 -20 -63 -19 -104 8 -43 29
-69 36 -95 26z"/>
<path d="M1094 932 c3 -6 25 -13 49 -17 23 -4 73 -18 112 -31 38 -13 88 -25
110 -25 22 0 64 -8 93 -16 35 -11 56 -13 63 -6 6 6 -15 14 -63 22 -97 16 -184
36 -233 54 -53 19 -139 32 -131 19z"/>
<path d="M1070 2495 c0 -8 2 -15 4 -15 2 0 6 7 10 15 3 8 1 15 -4 15 -6 0 -10
-7 -10 -15z"/>
<path d="M926 2452 c-3 -6 -1 -14 5 -17 14 -9 20 -2 10 14 -6 8 -11 9 -15 3z"/>
<path d="M788 2333 c7 -3 16 -2 19 1 4 3 -2 6 -13 5 -11 0 -14 -3 -6 -6z"/>
<path d="M735 2280 c3 -5 10 -10 16 -10 5 0 9 5 9 10 0 6 -7 10 -16 10 -8 0
-12 -4 -9 -10z"/>
</g>
</svg>
