<?xml version="1.0" standalone="no"?>
<!DOCTYPE svg PUBLIC "-//W3C//DTD SVG 20010904//EN"
 "http://www.w3.org/TR/2001/REC-SVG-20010904/DTD/svg10.dtd">
<svg version="1.0" xmlns="http://www.w3.org/2000/svg"
 width="240.000000pt" height="240.000000pt" viewBox="0 0 240.000000 240.000000"
 preserveAspectRatio="xMidYMid meet">
<metadata>
Created by potrace 1.14, written by Peter Selinger 2001-2017
</metadata>
<g transform="translate(0.000000,240.000000) scale(0.100000,-0.100000)"
fill="#000000" stroke="none">
<path d="M440 2100 c-101 -8 -220 -28 -238 -39 -7 -4 -19 -53 -28 -112 -14
-103 -14 -104 8 -120 25 -19 71 -29 141 -29 l47 0 0 -47 c0 -27 4 -65 9 -85 5
-22 3 -161 -6 -350 -18 -369 -19 -436 -8 -545 6 -67 5 -83 -6 -87 -8 -2 -45
-12 -82 -21 -37 -10 -74 -23 -81 -31 -22 -21 -29 -139 -11 -173 8 -17 15 -39
15 -51 0 -12 5 -18 10 -15 5 3 10 1 10 -5 0 -7 7 -10 15 -6 9 3 15 0 15 -8 0
-27 87 -34 195 -16 91 15 246 32 278 31 16 0 42 -12 59 -26 l31 -26 24 25 c13
14 32 26 41 26 23 1 92 10 119 15 21 5 23 10 25 128 4 156 0 167 -64 167 -41
0 -50 3 -57 22 -6 18 -16 23 -47 23 -27 1 -39 6 -39 16 0 8 6 15 13 15 23 3
24 4 13 18 -9 11 -9 15 1 19 8 3 6 6 -5 6 -17 1 -18 8 -15 61 1 33 -1 61 -5
63 -11 3 3 37 15 37 5 0 6 -5 3 -10 -17 -27 15 -4 54 39 38 42 47 47 63 37 14
-8 20 -8 26 1 11 17 61 23 236 27 128 4 164 1 181 -10 20 -13 26 -13 60 7 22
13 40 18 43 12 11 -16 41 -23 48 -11 4 7 3 8 -4 4 -7 -4 -12 -2 -12 4 0 6 8
10 18 8 24 -5 17 -66 -11 -89 l-22 -17 23 -20 c23 -21 29 -47 11 -57 -7 -5 -5
-12 5 -23 10 -12 15 -46 17 -122 l3 -104 -90 -12 c-50 -6 -96 -14 -102 -18
-21 -13 -15 -150 7 -187 24 -40 68 -69 103 -69 15 0 30 -5 33 -10 4 -6 11 -8
16 -5 5 4 9 0 9 -7 1 -8 7 -5 16 7 14 19 26 20 208 20 143 0 198 -4 209 -13
13 -11 23 -9 58 8 23 12 64 23 92 24 53 3 76 21 78 60 5 86 5 114 -4 139 -5
15 -13 27 -18 27 -5 0 -9 7 -9 15 0 8 -4 15 -10 15 -5 0 -10 -4 -10 -10 0 -5
-7 -10 -16 -10 -14 0 -14 3 -3 16 11 13 9 14 -17 8 -58 -15 -69 -11 -72 24 -2
17 -8 32 -14 32 -7 0 -7 4 0 13 6 7 12 38 13 70 2 45 6 58 21 63 23 7 23 35
-1 65 -10 13 -16 30 -14 37 3 7 -1 10 -11 6 -11 -4 -16 -1 -16 10 0 9 8 16 20
16 25 0 25 0 -6 56 -20 36 -23 48 -13 55 7 4 17 5 22 2 5 -3 4 4 -2 14 -6 11
-7 24 -3 28 4 5 2 5 -4 2 -16 -9 -23 47 -10 70 12 22 17 161 5 142 -6 -10 -9
-8 -9 8 0 25 16 40 23 21 2 -7 8 -10 13 -5 4 4 2 24 -5 44 -14 38 -16 172 -5
295 l7 67 43 17 c32 12 60 15 103 11 58 -6 59 -6 71 23 19 45 16 169 -5 213
-9 20 -25 37 -34 37 -9 0 -54 5 -101 10 -65 8 -123 6 -245 -6 -170 -17 -316
-15 -323 4 -2 7 -8 12 -13 12 -4 0 -6 -6 -3 -14 6 -14 -13 -19 -116 -32 -30
-4 -62 -13 -70 -20 -63 -55 -64 -56 -47 -69 19 -14 23 -35 6 -35 -5 0 -7 -5
-4 -10 4 -6 11 -8 16 -5 5 4 9 2 9 -4 0 -5 -5 -13 -10 -16 -6 -4 -4 -12 5 -21
8 -9 15 -22 15 -30 0 -8 5 -14 11 -14 6 0 8 -9 4 -21 -5 -14 -3 -19 3 -15 6 3
13 2 16 -3 4 -5 1 -13 -4 -16 -8 -5 -6 -13 6 -26 24 -26 47 -25 39 2 -6 19 -5
20 17 8 20 -12 82 -20 72 -10 -8 8 19 31 37 31 22 0 23 -8 5 -33 -15 -20 -12
-137 5 -172 5 -11 8 -65 7 -120 l-3 -100 -73 -3 c-48 -2 -79 1 -89 9 -11 10
-16 10 -23 0 -5 -9 -20 -11 -51 -6 -62 9 -80 9 -112 1 -23 -7 -26 -6 -21 8 8
20 0 20 -31 0 -18 -12 -60 -17 -173 -21 -149 -5 -149 -5 -155 18 -4 15 0 31
12 44 10 11 21 38 24 60 5 27 3 35 -3 25 -8 -12 -10 -9 -10 13 0 27 15 37 22
15 3 -8 6 -9 11 -1 4 6 -4 22 -18 34 -23 22 -25 31 -25 124 0 126 8 141 85
150 30 4 62 14 72 22 10 8 12 12 6 8 -18 -9 -16 13 2 31 8 9 15 13 15 10 0 -3
10 4 21 15 16 16 18 23 9 29 -7 5 -9 13 -5 21 6 9 3 11 -8 6 -13 -5 -17 -1
-17 19 0 42 -30 84 -61 84 -15 0 -32 7 -39 15 -10 13 -46 15 -214 14 -110 -1
-239 -5 -286 -9z"/>
<path d="M895 1381 c-3 -5 -1 -12 5 -16 5 -3 10 1 10 9 0 18 -6 21 -15 7z"/>
</g>
</svg>
